<?xml version="1.0" encoding="iso-8859-1"?>
<!-- Uploaded to: SVG Repo, www.svgrepo.com, Generator: SVG Repo Mixer Tools -->
<svg fill="#000000" height="800px" width="800px" version="1.1" id="Layer_1" xmlns="http://www.w3.org/2000/svg" xmlns:xlink="http://www.w3.org/1999/xlink" 
	 viewBox="0 0 512 512" xml:space="preserve">
<g>
	<g>
		<path d="M409.921,34.205h-70.263c-3.354-9.93-12.752-17.102-23.8-17.102H289.76C281.839,6.451,269.292,0,256,0
			s-25.839,6.451-33.76,17.102h-26.098c-11.048,0-20.446,7.172-23.8,17.102h-70.263c-18.566,0-33.67,15.105-33.67,33.67V478.33
			c0,18.566,15.105,33.67,33.67,33.67h307.841c18.566,0,33.67-15.105,33.67-33.67V67.875
			C443.591,49.309,428.486,34.205,409.921,34.205z M187.056,42.242c0-0.007,0.001-0.014,0.001-0.02c0-0.003,0-0.006,0-0.011
			c0.005-5.005,4.078-9.075,9.085-9.075h30.397c2.854,0,5.493-1.517,6.929-3.985c4.781-8.213,13.204-13.117,22.532-13.117
			s17.751,4.904,22.532,13.117c1.435,2.467,4.075,3.985,6.929,3.985h30.397c4.999,0,9.067,4.059,9.085,9.055
			c0,0.011-0.001,0.02-0.001,0.031c0,0.021,0.003,0.042,0.003,0.062v26.126H187.056V42.242z M427.557,478.33
			c0,9.725-7.912,17.637-17.637,17.637H102.079c-9.725,0-17.637-7.912-17.637-17.637V67.875c0-9.725,7.912-17.637,17.637-17.637
			h68.944v26.188c0,4.427,3.589,8.017,8.017,8.017H332.96c4.427,0,8.017-3.589,8.017-8.017V50.238h68.944
			c9.725,0,17.637,7.912,17.637,17.637V478.33z"/>
	</g>
</g>
<g>
	<g>
		<path d="M256.086,34.205H256c-4.427,0-7.974,3.589-7.974,8.017c0,4.427,3.632,8.017,8.059,8.017s8.017-3.589,8.017-8.017
			C264.102,37.794,260.513,34.205,256.086,34.205z"/>
	</g>
</g>
<g>
	<g>
		<path d="M401.37,68.409h-34.206c-4.427,0-8.017,3.589-8.017,8.017s3.589,8.017,8.017,8.017h26.189v377.319H118.647V84.443h26.19
			c4.427,0,8.017-3.589,8.017-8.017s-3.589-8.017-8.017-8.017H110.63c-4.427,0-8.017,3.589-8.017,8.017v393.353
			c0,4.427,3.589,8.017,8.017,8.017H401.37c4.427,0,8.017-3.589,8.017-8.017V76.426C409.386,71.999,405.797,68.409,401.37,68.409z"
			/>
	</g>
</g>
<g>
	<g>
		<path d="M204.693,171.023c-4.427,0-8.017,3.589-8.017,8.017c0,9.725-7.912,17.637-17.637,17.637s-17.637-7.912-17.637-17.637
			s7.912-17.637,17.637-17.637c4.427,0,8.017-3.589,8.017-8.017s-3.589-8.017-8.017-8.017c-18.566,0-33.67,15.105-33.67,33.67
			s15.105,33.67,33.67,33.67s33.67-15.105,33.67-33.67C212.71,174.612,209.12,171.023,204.693,171.023z"/>
	</g>
</g>
<g>
	<g>
		<path d="M204.693,265.086c-4.427,0-8.017,3.589-8.017,8.017c0,9.725-7.912,17.637-17.637,17.637s-17.637-7.912-17.637-17.637
			s7.912-17.637,17.637-17.637c4.427,0,8.017-3.589,8.017-8.017s-3.589-8.017-8.017-8.017c-18.566,0-33.67,15.105-33.67,33.67
			s15.105,33.67,33.67,33.67s33.67-15.105,33.67-33.67C212.71,268.675,209.12,265.086,204.693,265.086z"/>
	</g>
</g>
<g>
	<g>
		<path d="M358.614,282.188H238.898c-4.427,0-8.017,3.589-8.017,8.017s3.589,8.017,8.017,8.017h119.716
			c4.427,0,8.017-3.589,8.017-8.017S363.041,282.188,358.614,282.188z"/>
	</g>
</g>
<g>
	<g>
		<path d="M324.409,247.983h-85.511c-4.427,0-8.017,3.589-8.017,8.017s3.589,8.017,8.017,8.017h85.511
			c4.427,0,8.017-3.589,8.017-8.017S328.837,247.983,324.409,247.983z"/>
	</g>
</g>
<g>
	<g>
		<path d="M358.614,188.125H238.898c-4.427,0-8.017,3.589-8.017,8.017s3.589,8.017,8.017,8.017h119.716
			c4.427,0,8.017-3.589,8.017-8.017S363.041,188.125,358.614,188.125z"/>
	</g>
</g>
<g>
	<g>
		<path d="M324.409,153.921h-85.511c-4.427,0-8.017,3.589-8.017,8.017s3.589,8.017,8.017,8.017h85.511
			c4.427,0,8.017-3.589,8.017-8.017S328.837,153.921,324.409,153.921z"/>
	</g>
</g>
<g>
	<g>
		<path d="M204.693,359.148c-4.427,0-8.017,3.589-8.017,8.017c0,9.725-7.912,17.637-17.637,17.637s-17.637-7.912-17.637-17.637
			s7.912-17.637,17.637-17.637c4.427,0,8.017-3.589,8.017-8.017s-3.589-8.017-8.017-8.017c-18.566,0-33.67,15.105-33.67,33.67
			c0,18.566,15.105,33.67,33.67,33.67s33.67-15.105,33.67-33.67C212.71,362.738,209.12,359.148,204.693,359.148z"/>
	</g>
</g>
<g>
	<g>
		<path d="M358.614,376.251H238.898c-4.427,0-8.017,3.589-8.017,8.017c0,4.427,3.589,8.017,8.017,8.017h119.716
			c4.427,0,8.017-3.589,8.017-8.017C366.63,379.84,363.041,376.251,358.614,376.251z"/>
	</g>
</g>
<g>
	<g>
		<path d="M324.409,342.046h-85.511c-4.427,0-8.017,3.589-8.017,8.017s3.589,8.017,8.017,8.017h85.511
			c4.427,0,8.017-3.589,8.017-8.017S328.837,342.046,324.409,342.046z"/>
	</g>
</g>
</svg>